{
	"asset":{
		"generator":"Khronos glTF Blender I/O v4.0.44",
		"version":"2.0"
	},
	"extensionsUsed":[
		"KHR_materials_emissive_strength"
	],
	"scene":0,
	"scenes":[
		{
			"name":"Scene",
			"nodes":[
				8
			]
		}
	],
	"nodes":[
		{
			"mesh":0,
			"name":"Cube.003_Keyboard_0"
		},
		{
			"mesh":1,
			"name":"Cube.003_Monitor_0"
		},
		{
			"mesh":2,
			"name":"Cube.003_Mouse_0"
		},
		{
			"mesh":3,
			"name":"Cube.003_Screen_0"
		},
		{
			"mesh":4,
			"name":"Cube.003_Tower_0"
		},
		{
			"children":[
				0,
				1,
				2,
				3,
				4
			],
			"name":"Cube.003",
			"rotation":[
				-0.70710688829422,
				0,
				0,
				0.7071066498756409
			],
			"scale":[
				100.00000762939453,
				99.99998474121094,
				99.99998474121094
			],
			"translation":[
				0,
				4.999999523162842,
				174.99998474121094
			]
		},
		{
			"children":[
				5
			],
			"name":"RootNode"
		},
		{
			"children":[
				6
			],
			"name":"eb207eb1c2124ce9b3be8162ffbf6876.fbx",
			"rotation":[
				0.70710688829422,
				0,
				0,
				0.7071066498756409
			],
			"scale":[
				0.009999999776482582,
				0.009999998845160007,
				0.009999998845160007
			]
		},
		{
			"children":[
				7
			],
			"name":"Sketchfab_model",
			"rotation":[
				-0.70710688829422,
				0,
				0,
				0.7071066498756409
			]
		}
	],
	"materials":[
		{
			"alphaCutoff":0.7481927275657654,
			"alphaMode":"MASK",
			"doubleSided":true,
			"name":"Keyboard",
			"pbrMetallicRoughness":{
				"baseColorTexture":{
					"index":0
				},
				"metallicFactor":0,
				"roughnessFactor":0.5
			}
		},
		{
			"doubleSided":true,
			"name":"Monitor",
			"pbrMetallicRoughness":{
				"baseColorTexture":{
					"index":1
				},
				"metallicFactor":0,
				"roughnessFactor":0.5
			}
		},
		{
			"doubleSided":true,
			"name":"Mouse",
			"pbrMetallicRoughness":{
				"baseColorTexture":{
					"index":2
				},
				"metallicFactor":0,
				"roughnessFactor":0.5
			}
		},
		{
			"doubleSided":true,
			"emissiveFactor":[
				1,
				1,
				1
			],
			"emissiveTexture":{
				"index":3
			},
			"extensions":{
				"KHR_materials_emissive_strength":{
					"emissiveStrength":5.531445503234863
				}
			},
			"name":"Screen",
			"pbrMetallicRoughness":{
				"baseColorFactor":[
					0.008634230121970177,
					0.024678200483322144,
					0.010643900372087955,
					1
				],
				"metallicFactor":0,
				"roughnessFactor":0.08380977809429169
			}
		},
		{
			"doubleSided":true,
			"name":"Tower",
			"pbrMetallicRoughness":{
				"baseColorTexture":{
					"index":4
				},
				"metallicFactor":0,
				"roughnessFactor":0.5
			}
		}
	],
	"meshes":[
		{
			"name":"Cube.003_Keyboard_0",
			"primitives":[
				{
					"attributes":{
						"POSITION":0,
						"NORMAL":1,
						"TEXCOORD_0":2
					},
					"indices":3,
					"material":0
				}
			]
		},
		{
			"name":"Cube.003_Monitor_0",
			"primitives":[
				{
					"attributes":{
						"POSITION":4,
						"NORMAL":5,
						"TEXCOORD_0":6
					},
					"indices":7,
					"material":1
				}
			]
		},
		{
			"name":"Cube.003_Mouse_0",
			"primitives":[
				{
					"attributes":{
						"POSITION":8,
						"NORMAL":9,
						"TEXCOORD_0":10
					},
					"indices":11,
					"material":2
				}
			]
		},
		{
			"name":"Cube.003_Screen_0",
			"primitives":[
				{
					"attributes":{
						"POSITION":12,
						"NORMAL":13,
						"TEXCOORD_0":14
					},
					"indices":15,
					"material":3
				}
			]
		},
		{
			"name":"Cube.003_Tower_0",
			"primitives":[
				{
					"attributes":{
						"POSITION":16,
						"NORMAL":17,
						"TEXCOORD_0":18
					},
					"indices":19,
					"material":4
				}
			]
		}
	],
	"textures":[
		{
			"sampler":0,
			"source":0
		},
		{
			"sampler":0,
			"source":1
		},
		{
			"sampler":0,
			"source":2
		},
		{
			"sampler":0,
			"source":3
		},
		{
			"sampler":0,
			"source":4
		}
	],
	"images":[
		{
			"mimeType":"image/png",
			"name":"Keyboard_baseColor",
			"uri":"textures/Keyboard_baseColor.png"
		},
		{
			"mimeType":"image/png",
			"name":"Monitor_baseColor",
			"uri":"textures/Monitor_baseColor.png"
		},
		{
			"mimeType":"image/png",
			"name":"Mouse_baseColor",
			"uri":"textures/Mouse_baseColor.png"
		},
		{
			"mimeType":"image/png",
			"name":"Screen_emissive",
			"uri":"textures/Screen_emissive.png"
		},
		{
			"mimeType":"image/png",
			"name":"Tower_baseColor",
			"uri":"textures/Tower_baseColor.png"
		}
	],
	"accessors":[
		{
			"bufferView":0,
			"componentType":5126,
			"count":168,
			"max":[
				1,
				1.9500000476837158,
				0.15699897706508636
			],
			"min":[
				-1,
				-0.34999996423721313,
				-0.05000000074505806
			],
			"type":"VEC3"
		},
		{
			"bufferView":1,
			"componentType":5126,
			"count":168,
			"type":"VEC3"
		},
		{
			"bufferView":2,
			"componentType":5126,
			"count":168,
			"type":"VEC2"
		},
		{
			"bufferView":3,
			"componentType":5123,
			"count":330,
			"type":"SCALAR"
		},
		{
			"bufferView":4,
			"componentType":5126,
			"count":88,
			"max":[
				1,
				2.6712238788604736,
				1.9800002574920654
			],
			"min":[
				-1,
				0.75,
				0.4500000476837158
			],
			"type":"VEC3"
		},
		{
			"bufferView":5,
			"componentType":5126,
			"count":88,
			"type":"VEC3"
		},
		{
			"bufferView":6,
			"componentType":5126,
			"count":88,
			"type":"VEC2"
		},
		{
			"bufferView":7,
			"componentType":5123,
			"count":174,
			"type":"SCALAR"
		},
		{
			"bufferView":8,
			"componentType":5126,
			"count":32,
			"max":[
				1.5,
				-0.35000014305114746,
				0.09000000357627869
			],
			"min":[
				1.1999999284744263,
				-0.8500001430511475,
				-0.05000000074505806
			],
			"type":"VEC3"
		},
		{
			"bufferView":9,
			"componentType":5126,
			"count":32,
			"type":"VEC3"
		},
		{
			"bufferView":10,
			"componentType":5126,
			"count":32,
			"type":"VEC2"
		},
		{
			"bufferView":11,
			"componentType":5123,
			"count":60,
			"type":"SCALAR"
		},
		{
			"bufferView":12,
			"componentType":5126,
			"count":13,
			"max":[
				0.8605517148971558,
				1.0203149318695068,
				1.7994472980499268
			],
			"min":[
				-0.8605517148971558,
				0.8219020366668701,
				0.6356921195983887
			],
			"type":"VEC3"
		},
		{
			"bufferView":13,
			"componentType":5126,
			"count":13,
			"type":"VEC3"
		},
		{
			"bufferView":14,
			"componentType":5126,
			"count":13,
			"type":"VEC2"
		},
		{
			"bufferView":15,
			"componentType":5123,
			"count":60,
			"type":"SCALAR"
		},
		{
			"bufferView":16,
			"componentType":5126,
			"count":24,
			"max":[
				1,
				2.6500000953674316,
				0.44999998807907104
			],
			"min":[
				-1,
				0.75,
				-0.04999999701976776
			],
			"type":"VEC3"
		},
		{
			"bufferView":17,
			"componentType":5126,
			"count":24,
			"type":"VEC3"
		},
		{
			"bufferView":18,
			"componentType":5126,
			"count":24,
			"type":"VEC2"
		},
		{
			"bufferView":19,
			"componentType":5123,
			"count":36,
			"type":"SCALAR"
		}
	],
	"bufferViews":[
		{
			"buffer":0,
			"byteLength":2016,
			"byteOffset":0,
			"target":34962
		},
		{
			"buffer":0,
			"byteLength":2016,
			"byteOffset":2016,
			"target":34962
		},
		{
			"buffer":0,
			"byteLength":1344,
			"byteOffset":4032,
			"target":34962
		},
		{
			"buffer":0,
			"byteLength":660,
			"byteOffset":5376,
			"target":34963
		},
		{
			"buffer":0,
			"byteLength":1056,
			"byteOffset":6036,
			"target":34962
		},
		{
			"buffer":0,
			"byteLength":1056,
			"byteOffset":7092,
			"target":34962
		},
		{
			"buffer":0,
			"byteLength":704,
			"byteOffset":8148,
			"target":34962
		},
		{
			"buffer":0,
			"byteLength":348,
			"byteOffset":8852,
			"target":34963
		},
		{
			"buffer":0,
			"byteLength":384,
			"byteOffset":9200,
			"target":34962
		},
		{
			"buffer":0,
			"byteLength":384,
			"byteOffset":9584,
			"target":34962
		},
		{
			"buffer":0,
			"byteLength":256,
			"byteOffset":9968,
			"target":34962
		},
		{
			"buffer":0,
			"byteLength":120,
			"byteOffset":10224,
			"target":34963
		},
		{
			"buffer":0,
			"byteLength":156,
			"byteOffset":10344,
			"target":34962
		},
		{
			"buffer":0,
			"byteLength":156,
			"byteOffset":10500,
			"target":34962
		},
		{
			"buffer":0,
			"byteLength":104,
			"byteOffset":10656,
			"target":34962
		},
		{
			"buffer":0,
			"byteLength":120,
			"byteOffset":10760,
			"target":34963
		},
		{
			"buffer":0,
			"byteLength":288,
			"byteOffset":10880,
			"target":34962
		},
		{
			"buffer":0,
			"byteLength":288,
			"byteOffset":11168,
			"target":34962
		},
		{
			"buffer":0,
			"byteLength":192,
			"byteOffset":11456,
			"target":34962
		},
		{
			"buffer":0,
			"byteLength":72,
			"byteOffset":11648,
			"target":34963
		}
	],
	"samplers":[
		{
			"magFilter":9728,
			"minFilter":9984
		}
	],
	"buffers":[
		{
			"byteLength":11720,
			"uri":"untitled.bin"
		}
	]
}
